<?xml version="1.0" encoding="utf-8"?>
<svg class="qa-icon" xmlns="http://www.w3.org/2000/svg" viewBox="0 0 24 24" width="18" height="18" fill="#28a745" aria-hidden="true" role="img">
  <g transform="translate(0.00,312.00) scale(0.023323615160)">
  <path d="M 806.00 11.00 L 799.00 39.00 L 772.00 46.00 L 751.00 25.00 L 715.00 47.00 L 723.00 75.00 L 704.00 94.00 L 675.00 87.00 L 655.00 121.00 L 675.00 142.00 L 669.00 169.00 L 640.00 177.00 L 640.00 219.00 L 669.00 227.00 L 675.00 254.00 L 655.00 275.00 L 676.00 310.00 L 704.00 302.00 L 723.00 321.00 L 715.00 347.00 L 717.00 351.00 L 755.00 370.00 L 774.00 350.00 L 800.00 358.00 L 806.00 385.00 L 850.00 385.00 L 856.00 357.00 L 884.00 351.00 L 904.00 371.00 L 937.00 352.00 L 940.00 347.00 L 932.00 322.00 L 951.00 302.00 L 980.00 310.00 L 1000.00 275.00 L 1000.00 271.00 L 980.00 254.00 L 986.00 227.00 L 1015.00 219.00 L 1015.00 177.00 L 986.00 169.00 L 980.00 142.00 L 1000.00 125.00 L 1000.00 121.00 L 980.00 86.00 L 952.00 94.00 L 932.00 74.00 L 940.00 46.00 L 904.00 25.00 L 884.00 45.00 L 855.00 38.00 L 850.00 11.00 Z" fill="rgb(0,101,81)" stroke="none" />
  <path d="M 298.00 222.00 L 286.00 224.00 L 286.00 277.00 L 283.00 281.00 L 269.00 280.00 L 269.00 241.00 L 260.00 244.00 L 240.00 243.00 L 231.00 247.00 L 227.00 251.00 L 223.00 263.00 L 225.00 281.00 L 211.00 280.00 L 212.00 261.00 L 210.00 255.00 L 206.00 250.00 L 196.00 245.00 L 182.00 245.00 L 172.00 248.00 L 141.00 267.00 L 138.00 266.00 L 138.00 257.00 L 126.00 259.00 L 126.00 278.00 L 123.00 281.00 L 109.00 280.00 L 109.00 250.00 L 97.00 252.00 L 96.00 279.00 L 94.00 281.00 L 80.00 281.00 L 81.00 266.00 L 77.00 253.00 L 68.00 246.00 L 52.00 245.00 L 39.00 253.00 L 35.00 265.00 L 35.00 278.00 L 32.00 281.00 L 17.00 281.00 L 17.00 284.00 L 23.00 291.00 L 35.00 291.00 L 43.00 288.00 L 57.00 291.00 L 69.00 288.00 L 75.00 291.00 L 97.00 291.00 L 104.00 288.00 L 108.00 291.00 L 191.00 291.00 L 204.00 288.00 L 206.00 291.00 L 291.00 290.00 L 298.00 281.00 Z" fill="rgb(0,101,81)" stroke="none" />
  <path d="M 574.00 246.00 L 562.00 246.00 L 562.00 278.00 L 559.00 281.00 L 555.00 281.00 L 550.00 277.00 L 550.00 250.00 L 538.00 252.00 L 538.00 274.00 L 534.00 281.00 L 525.00 277.00 L 525.00 250.00 L 513.00 252.00 L 512.00 279.00 L 510.00 281.00 L 497.00 281.00 L 498.00 265.00 L 496.00 257.00 L 490.00 249.00 L 481.00 245.00 L 468.00 245.00 L 461.00 248.00 L 456.00 253.00 L 452.00 264.00 L 452.00 277.00 L 449.00 281.00 L 436.00 280.00 L 436.00 250.00 L 424.00 252.00 L 424.00 277.00 L 421.00 281.00 L 409.00 280.00 L 409.00 250.00 L 397.00 252.00 L 396.00 279.00 L 393.00 281.00 L 355.00 281.00 L 352.00 278.00 L 351.00 259.00 L 339.00 262.00 L 339.00 277.00 L 341.00 285.00 L 345.00 289.00 L 352.00 291.00 L 397.00 291.00 L 404.00 288.00 L 408.00 291.00 L 424.00 291.00 L 431.00 288.00 L 435.00 291.00 L 452.00 291.00 L 460.00 288.00 L 474.00 291.00 L 490.00 288.00 L 492.00 291.00 L 513.00 291.00 L 522.00 286.00 L 531.00 290.00 L 542.00 290.00 L 547.00 286.00 L 556.00 290.00 L 567.00 290.00 L 574.00 282.00 Z" fill="rgb(0,101,81)" stroke="none" />
  <path d="M 26.00 319.00 L 21.00 324.00 L 21.00 325.00 L 19.00 327.00 L 19.00 328.00 L 18.00 329.00 L 18.00 331.00 L 17.00 332.00 L 17.00 334.00 L 16.00 335.00 L 16.00 354.00 L 17.00 355.00 L 17.00 357.00 L 18.00 358.00 L 20.00 363.00 L 22.00 365.00 L 22.00 366.00 L 24.00 368.00 L 25.00 368.00 L 28.00 371.00 L 29.00 371.00 L 34.00 374.00 L 37.00 374.00 L 38.00 375.00 L 49.00 375.00 L 50.00 376.00 L 51.00 376.00 L 52.00 377.00 L 53.00 377.00 L 60.00 381.00 L 62.00 381.00 L 65.00 383.00 L 67.00 383.00 L 68.00 384.00 L 70.00 384.00 L 71.00 385.00 L 76.00 385.00 L 82.00 379.00 L 82.00 377.00 L 77.00 377.00 L 76.00 376.00 L 72.00 376.00 L 71.00 375.00 L 68.00 375.00 L 67.00 374.00 L 64.00 374.00 L 63.00 373.00 L 63.00 371.00 L 70.00 364.00 L 70.00 363.00 L 72.00 361.00 L 72.00 360.00 L 73.00 359.00 L 73.00 357.00 L 74.00 356.00 L 74.00 353.00 L 75.00 352.00 L 75.00 337.00 L 74.00 336.00 L 74.00 333.00 L 73.00 332.00 L 73.00 330.00 L 72.00 329.00 L 71.00 326.00 L 68.00 323.00 L 68.00 322.00 L 66.00 320.00 L 65.00 320.00 L 62.00 317.00 L 61.00 317.00 L 58.00 315.00 L 56.00 315.00 L 55.00 314.00 L 50.00 314.00 L 49.00 313.00 L 42.00 313.00 L 41.00 314.00 L 36.00 314.00 L 35.00 315.00 L 33.00 315.00 L 32.00 316.00 L 29.00 317.00 L 27.00 319.00 Z" fill="rgb(0,101,81)" stroke="none" />
  <path d="M 316.00 331.00 L 315.00 340.00 L 314.00 341.00 L 314.00 348.00 L 315.00 349.00 L 316.00 357.00 L 320.00 365.00 L 324.00 369.00 L 333.00 374.00 L 336.00 374.00 L 337.00 375.00 L 355.00 375.00 L 356.00 374.00 L 363.00 373.00 L 366.00 371.00 L 366.00 365.00 L 367.00 364.00 L 369.00 364.00 L 375.00 371.00 L 381.00 374.00 L 395.00 375.00 L 406.00 372.00 L 406.00 364.00 L 400.00 366.00 L 391.00 367.00 L 385.00 365.00 L 380.00 359.00 L 380.00 355.00 L 381.00 354.00 L 406.00 354.00 L 405.00 341.00 L 402.00 335.00 L 398.00 331.00 L 392.00 329.00 L 379.00 330.00 L 371.00 336.00 L 368.00 341.00 L 367.00 349.00 L 366.00 350.00 L 366.00 354.00 L 368.00 360.00 L 367.00 363.00 L 363.00 363.00 L 356.00 366.00 L 347.00 367.00 L 346.00 366.00 L 341.00 366.00 L 337.00 364.00 L 331.00 358.00 L 328.00 351.00 L 328.00 337.00 L 332.00 328.00 L 335.00 325.00 L 341.00 322.00 L 354.00 322.00 L 365.00 325.00 L 365.00 316.00 L 364.00 315.00 L 352.00 314.00 L 351.00 313.00 L 342.00 313.00 L 341.00 314.00 L 332.00 315.00 L 326.00 318.00 L 319.00 325.00 Z" fill="rgb(0,101,81)" stroke="none" />
  <path d="M 412.00 330.00 L 412.00 373.00 L 413.00 374.00 L 424.00 374.00 L 424.00 346.00 L 425.00 344.00 L 431.00 339.00 L 436.00 339.00 L 439.00 343.00 L 439.00 374.00 L 450.00 374.00 L 451.00 373.00 L 451.00 345.00 L 456.00 340.00 L 458.00 339.00 L 463.00 339.00 L 465.00 341.00 L 465.00 343.00 L 466.00 344.00 L 466.00 374.00 L 477.00 374.00 L 477.00 337.00 L 476.00 336.00 L 476.00 334.00 L 472.00 330.00 L 470.00 330.00 L 469.00 329.00 L 462.00 329.00 L 461.00 330.00 L 457.00 331.00 L 453.00 335.00 L 450.00 335.00 L 448.00 333.00 L 448.00 332.00 L 442.00 329.00 L 434.00 329.00 L 430.00 331.00 L 428.00 333.00 L 425.00 333.00 L 424.00 332.00 L 424.00 330.00 Z" fill="rgb(0,101,81)" stroke="none" />
  <path d="M 235.00 330.00 L 235.00 374.00 L 246.00 374.00 L 246.00 347.00 L 247.00 345.00 L 253.00 339.00 L 259.00 339.00 L 261.00 341.00 L 261.00 344.00 L 262.00 345.00 L 262.00 374.00 L 273.00 374.00 L 273.00 346.00 L 276.00 343.00 L 276.00 342.00 L 280.00 339.00 L 285.00 339.00 L 288.00 342.00 L 288.00 374.00 L 300.00 374.00 L 300.00 339.00 L 299.00 338.00 L 299.00 335.00 L 296.00 331.00 L 292.00 329.00 L 284.00 329.00 L 283.00 330.00 L 281.00 330.00 L 275.00 335.00 L 273.00 335.00 L 269.00 331.00 L 265.00 329.00 L 257.00 329.00 L 256.00 330.00 L 252.00 331.00 L 249.00 334.00 L 247.00 334.00 L 246.00 333.00 L 246.00 330.00 Z" fill="rgb(0,101,81)" stroke="none" />
  <path d="M 82.00 332.00 L 82.00 340.00 L 84.00 340.00 L 85.00 339.00 L 86.00 339.00 L 87.00 338.00 L 89.00 338.00 L 90.00 337.00 L 94.00 337.00 L 95.00 336.00 L 97.00 336.00 L 98.00 337.00 L 100.00 337.00 L 103.00 339.00 L 103.00 340.00 L 104.00 341.00 L 104.00 346.00 L 103.00 347.00 L 94.00 347.00 L 93.00 348.00 L 90.00 348.00 L 89.00 349.00 L 87.00 349.00 L 86.00 350.00 L 85.00 350.00 L 80.00 355.00 L 80.00 356.00 L 79.00 357.00 L 79.00 360.00 L 78.00 361.00 L 78.00 364.00 L 79.00 365.00 L 79.00 367.00 L 80.00 368.00 L 80.00 369.00 L 84.00 373.00 L 85.00 373.00 L 86.00 374.00 L 88.00 374.00 L 89.00 375.00 L 94.00 375.00 L 95.00 374.00 L 97.00 374.00 L 98.00 373.00 L 99.00 373.00 L 102.00 371.00 L 105.00 371.00 L 108.00 374.00 L 110.00 374.00 L 111.00 375.00 L 117.00 375.00 L 118.00 374.00 L 120.00 374.00 L 121.00 373.00 L 121.00 371.00 L 120.00 370.00 L 120.00 367.00 L 118.00 367.00 L 116.00 365.00 L 116.00 342.00 L 115.00 341.00 L 115.00 337.00 L 114.00 336.00 L 114.00 335.00 L 111.00 332.00 L 110.00 332.00 L 107.00 330.00 L 105.00 330.00 L 104.00 329.00 L 92.00 329.00 L 91.00 330.00 L 87.00 330.00 L 86.00 331.00 L 84.00 331.00 L 83.00 332.00 Z" fill="rgb(0,101,81)" stroke="none" />
  <path d="M 489.00 333.00 L 486.00 336.00 L 486.00 337.00 L 484.00 339.00 L 484.00 340.00 L 483.00 341.00 L 483.00 343.00 L 482.00 344.00 L 482.00 359.00 L 483.00 360.00 L 483.00 362.00 L 484.00 363.00 L 484.00 364.00 L 486.00 366.00 L 486.00 367.00 L 489.00 370.00 L 490.00 370.00 L 492.00 372.00 L 493.00 372.00 L 496.00 374.00 L 500.00 374.00 L 501.00 375.00 L 510.00 375.00 L 511.00 374.00 L 516.00 374.00 L 517.00 373.00 L 520.00 373.00 L 521.00 372.00 L 521.00 364.00 L 519.00 364.00 L 518.00 365.00 L 516.00 365.00 L 515.00 366.00 L 510.00 366.00 L 509.00 367.00 L 507.00 367.00 L 506.00 366.00 L 502.00 366.00 L 501.00 365.00 L 500.00 365.00 L 496.00 361.00 L 496.00 360.00 L 495.00 359.00 L 495.00 355.00 L 496.00 354.00 L 521.00 354.00 L 521.00 345.00 L 520.00 344.00 L 520.00 341.00 L 519.00 340.00 L 519.00 338.00 L 518.00 337.00 L 518.00 336.00 L 513.00 331.00 L 512.00 331.00 L 511.00 330.00 L 509.00 330.00 L 508.00 329.00 L 498.00 329.00 L 497.00 330.00 L 495.00 330.00 L 494.00 331.00 L 492.00 331.00 L 490.00 333.00 Z" fill="rgb(0,101,81)" stroke="none" />
  <path d="M 562.00 331.00 L 561.00 331.00 L 558.00 329.00 L 550.00 329.00 L 549.00 330.00 L 548.00 330.00 L 547.00 331.00 L 544.00 332.00 L 542.00 334.00 L 540.00 334.00 L 539.00 333.00 L 539.00 330.00 L 528.00 330.00 L 527.00 331.00 L 527.00 373.00 L 528.00 374.00 L 539.00 374.00 L 539.00 347.00 L 540.00 346.00 L 540.00 345.00 L 545.00 340.00 L 546.00 340.00 L 547.00 339.00 L 552.00 339.00 L 554.00 341.00 L 554.00 342.00 L 555.00 343.00 L 555.00 374.00 L 567.00 374.00 L 567.00 339.00 L 566.00 338.00 L 566.00 336.00 L 565.00 335.00 L 565.00 334.00 Z" fill="rgb(0,101,81)" stroke="none" />
  <path d="M 588.00 204.00 L 587.00 205.00 L 586.00 205.00 L 582.00 209.00 L 582.00 211.00 L 581.00 212.00 L 581.00 217.00 L 582.00 218.00 L 582.00 219.00 L 585.00 219.00 L 586.00 220.00 L 586.00 286.00 L 587.00 287.00 L 589.00 287.00 L 590.00 288.00 L 592.00 288.00 L 595.00 290.00 L 598.00 290.00 L 598.00 214.00 L 589.00 214.00 L 588.00 213.00 L 588.00 211.00 L 590.00 209.00 L 598.00 209.00 L 598.00 205.00 L 597.00 205.00 L 596.00 204.00 Z" fill="rgb(0,101,81)" stroke="none" />
  <path d="M 181.00 329.00 L 180.00 330.00 L 177.00 330.00 L 176.00 331.00 L 173.00 332.00 L 170.00 335.00 L 170.00 336.00 L 169.00 337.00 L 169.00 340.00 L 168.00 341.00 L 168.00 343.00 L 169.00 344.00 L 169.00 347.00 L 171.00 349.00 L 171.00 350.00 L 172.00 351.00 L 173.00 351.00 L 175.00 353.00 L 176.00 353.00 L 177.00 354.00 L 178.00 354.00 L 181.00 356.00 L 183.00 356.00 L 184.00 357.00 L 187.00 358.00 L 190.00 361.00 L 190.00 365.00 L 187.00 367.00 L 178.00 367.00 L 177.00 366.00 L 174.00 366.00 L 173.00 365.00 L 171.00 365.00 L 170.00 364.00 L 168.00 364.00 L 168.00 372.00 L 169.00 373.00 L 172.00 373.00 L 173.00 374.00 L 178.00 374.00 L 179.00 375.00 L 188.00 375.00 L 189.00 374.00 L 192.00 374.00 L 193.00 373.00 L 195.00 373.00 L 196.00 372.00 L 197.00 372.00 L 201.00 368.00 L 201.00 367.00 L 202.00 366.00 L 202.00 364.00 L 203.00 363.00 L 203.00 359.00 L 202.00 358.00 L 202.00 356.00 L 201.00 355.00 L 201.00 354.00 L 199.00 352.00 L 198.00 352.00 L 196.00 350.00 L 195.00 350.00 L 192.00 348.00 L 190.00 348.00 L 187.00 346.00 L 185.00 346.00 L 184.00 345.00 L 183.00 345.00 L 181.00 343.00 L 181.00 339.00 L 183.00 337.00 L 194.00 337.00 L 195.00 338.00 L 199.00 338.00 L 199.00 330.00 L 194.00 330.00 L 193.00 329.00 Z" fill="rgb(0,101,81)" stroke="none" />
  <path d="M 138.00 329.00 L 137.00 330.00 L 135.00 330.00 L 134.00 331.00 L 132.00 331.00 L 127.00 336.00 L 127.00 338.00 L 126.00 339.00 L 126.00 346.00 L 127.00 347.00 L 127.00 348.00 L 131.00 352.00 L 132.00 352.00 L 134.00 354.00 L 135.00 354.00 L 136.00 355.00 L 138.00 355.00 L 141.00 357.00 L 143.00 357.00 L 145.00 359.00 L 146.00 359.00 L 148.00 361.00 L 148.00 364.00 L 145.00 367.00 L 136.00 367.00 L 135.00 366.00 L 132.00 366.00 L 131.00 365.00 L 129.00 365.00 L 128.00 364.00 L 126.00 364.00 L 126.00 373.00 L 129.00 373.00 L 130.00 374.00 L 136.00 374.00 L 137.00 375.00 L 146.00 375.00 L 147.00 374.00 L 150.00 374.00 L 151.00 373.00 L 154.00 372.00 L 159.00 367.00 L 159.00 366.00 L 160.00 365.00 L 160.00 357.00 L 159.00 356.00 L 159.00 355.00 L 155.00 351.00 L 154.00 351.00 L 152.00 349.00 L 150.00 349.00 L 147.00 347.00 L 145.00 347.00 L 144.00 346.00 L 141.00 345.00 L 138.00 342.00 L 138.00 339.00 L 141.00 337.00 L 151.00 337.00 L 152.00 338.00 L 154.00 338.00 L 155.00 339.00 L 157.00 339.00 L 157.00 331.00 L 156.00 330.00 L 152.00 330.00 L 151.00 329.00 Z" fill="rgb(0,101,81)" stroke="none" />
  <path d="M 308.00 222.00 L 308.00 286.00 L 309.00 287.00 L 311.00 287.00 L 312.00 288.00 L 313.00 288.00 L 314.00 289.00 L 316.00 289.00 L 317.00 290.00 L 320.00 290.00 L 320.00 222.00 Z" fill="rgb(0,101,81)" stroke="none" />
  <path d="M 577.00 322.00 L 576.00 323.00 L 576.00 329.00 L 575.00 330.00 L 571.00 330.00 L 571.00 337.00 L 575.00 337.00 L 576.00 338.00 L 576.00 366.00 L 577.00 367.00 L 577.00 368.00 L 578.00 369.00 L 578.00 370.00 L 580.00 372.00 L 581.00 372.00 L 582.00 373.00 L 583.00 373.00 L 584.00 374.00 L 587.00 374.00 L 588.00 375.00 L 594.00 375.00 L 595.00 374.00 L 598.00 374.00 L 598.00 367.00 L 593.00 367.00 L 592.00 366.00 L 591.00 366.00 L 588.00 363.00 L 588.00 338.00 L 589.00 337.00 L 597.00 337.00 L 597.00 330.00 L 589.00 330.00 L 588.00 329.00 L 588.00 321.00 L 586.00 321.00 L 585.00 322.00 Z" fill="rgb(0,101,81)" stroke="none" />
  <path d="M 212.00 330.00 L 212.00 374.00 L 224.00 374.00 L 224.00 330.00 Z" fill="rgb(0,101,81)" stroke="none" />
  <path d="M 359.00 238.00 L 359.00 240.00 L 360.00 241.00 L 360.00 242.00 L 361.00 243.00 L 361.00 244.00 L 362.00 245.00 L 363.00 245.00 L 364.00 246.00 L 368.00 246.00 L 369.00 245.00 L 370.00 245.00 L 374.00 241.00 L 376.00 241.00 L 377.00 242.00 L 377.00 243.00 L 379.00 245.00 L 380.00 245.00 L 381.00 246.00 L 385.00 246.00 L 386.00 245.00 L 387.00 245.00 L 389.00 243.00 L 389.00 242.00 L 390.00 241.00 L 390.00 238.00 L 389.00 237.00 L 389.00 235.00 L 388.00 234.00 L 387.00 234.00 L 386.00 233.00 L 385.00 233.00 L 384.00 232.00 L 382.00 232.00 L 381.00 233.00 L 379.00 233.00 L 377.00 235.00 L 377.00 236.00 L 376.00 237.00 L 373.00 237.00 L 372.00 236.00 L 372.00 235.00 L 370.00 233.00 L 369.00 233.00 L 368.00 232.00 L 365.00 232.00 L 364.00 233.00 L 363.00 233.00 L 360.00 236.00 L 360.00 237.00 Z" fill="rgb(0,101,81)" stroke="none" />
  <path d="M 231.00 227.00 L 231.00 231.00 L 232.00 232.00 L 232.00 233.00 L 233.00 234.00 L 234.00 234.00 L 235.00 235.00 L 241.00 235.00 L 244.00 232.00 L 244.00 231.00 L 245.00 230.00 L 247.00 230.00 L 249.00 232.00 L 249.00 233.00 L 251.00 235.00 L 258.00 235.00 L 261.00 232.00 L 261.00 226.00 L 260.00 225.00 L 260.00 224.00 L 259.00 223.00 L 258.00 223.00 L 257.00 222.00 L 252.00 222.00 L 251.00 223.00 L 250.00 223.00 L 249.00 224.00 L 249.00 225.00 L 247.00 227.00 L 245.00 227.00 L 244.00 226.00 L 244.00 225.00 L 242.00 223.00 L 241.00 223.00 L 240.00 222.00 L 235.00 222.00 L 232.00 225.00 L 232.00 226.00 Z" fill="rgb(0,101,81)" stroke="none" />
  <path d="M 79.00 301.00 L 79.00 306.00 L 80.00 307.00 L 80.00 308.00 L 82.00 310.00 L 89.00 310.00 L 91.00 308.00 L 91.00 307.00 L 93.00 305.00 L 95.00 305.00 L 96.00 306.00 L 96.00 307.00 L 99.00 310.00 L 105.00 310.00 L 106.00 309.00 L 107.00 309.00 L 108.00 308.00 L 108.00 307.00 L 109.00 306.00 L 109.00 301.00 L 105.00 297.00 L 99.00 297.00 L 96.00 300.00 L 96.00 302.00 L 95.00 303.00 L 93.00 303.00 L 92.00 302.00 L 92.00 301.00 L 91.00 300.00 L 91.00 299.00 L 90.00 298.00 L 89.00 298.00 L 88.00 297.00 L 83.00 297.00 L 82.00 298.00 L 81.00 298.00 L 80.00 299.00 L 80.00 300.00 Z" fill="rgb(0,101,81)" stroke="none" />
  <path d="M 423.00 225.00 L 422.00 226.00 L 421.00 226.00 L 419.00 228.00 L 419.00 229.00 L 418.00 230.00 L 418.00 233.00 L 419.00 234.00 L 419.00 235.00 L 420.00 236.00 L 420.00 237.00 L 421.00 237.00 L 422.00 238.00 L 423.00 238.00 L 424.00 239.00 L 426.00 239.00 L 427.00 238.00 L 428.00 238.00 L 429.00 237.00 L 430.00 237.00 L 430.00 236.00 L 431.00 235.00 L 431.00 234.00 L 432.00 233.00 L 432.00 230.00 L 431.00 229.00 L 431.00 228.00 L 428.00 225.00 Z" fill="rgb(0,101,81)" stroke="none" />
  <path d="M 217.00 313.00 L 216.00 314.00 L 215.00 314.00 L 213.00 316.00 L 213.00 317.00 L 212.00 318.00 L 212.00 321.00 L 213.00 322.00 L 213.00 323.00 L 215.00 325.00 L 221.00 325.00 L 224.00 322.00 L 224.00 317.00 L 221.00 314.00 L 220.00 314.00 L 219.00 313.00 Z" fill="rgb(0,101,81)" stroke="none" />
  </g>
</svg>
